<?xml version="1.0" standalone="no"?>
<!DOCTYPE svg PUBLIC "-//W3C//DTD SVG 20010904//EN"
 "http://www.w3.org/TR/2001/REC-SVG-20010904/DTD/svg10.dtd">
<svg version="1.0" xmlns="http://www.w3.org/2000/svg"
 width="765.000000pt" height="765.000000pt" viewBox="0 0 765.000000 765.000000"
 preserveAspectRatio="xMidYMid meet">
<metadata>
Created by potrace 1.14, written by Peter Selinger 2001-2017
</metadata>
<g transform="translate(0.000000,765.000000) scale(0.100000,-0.100000)"
fill="#000000" stroke="none">
<path d="M5468 6904 c-2 -1 -32 -5 -68 -8 -36 -4 -81 -9 -100 -11 -19 -2 -60
-7 -90 -10 -30 -3 -71 -8 -90 -10 -19 -2 -60 -7 -90 -10 -30 -3 -71 -8 -90
-10 -19 -3 -62 -7 -95 -10 -33 -2 -78 -7 -100 -10 -76 -9 -140 -16 -185 -20
-25 -3 -63 -7 -85 -10 -22 -2 -65 -7 -95 -10 -123 -14 -149 -54 -152 -248 l-3
-138 -202 -201 -203 -200 0 -112 c0 -61 0 -523 0 -1027 l0 -916 -113 -12 c-61
-7 -125 -14 -142 -16 -16 -2 -61 -6 -100 -10 -146 -14 -174 -50 -175 -225 -1
-154 -5 -168 -55 -213 l-43 -37 0 502 c0 277 -1 787 -1 1134 l-1 630 -254 382
-255 382 0 115 c1 132 -15 180 -66 204 -25 12 -47 13 -140 2 -60 -7 -128 -14
-150 -16 -48 -4 -137 -13 -185 -20 -19 -3 -60 -7 -90 -10 -30 -4 -72 -8 -93
-10 -20 -2 -63 -7 -94 -10 -31 -3 -68 -7 -82 -9 -14 -3 -57 -8 -96 -11 -38 -4
-81 -8 -95 -10 -14 -1 -54 -6 -90 -9 -166 -17 -189 -26 -218 -88 -17 -35 -21
-62 -21 -148 0 -58 0 -117 0 -132 -1 -21 -43 -69 -203 -227 l-202 -200 -1
-1693 c0 -931 -4 -1698 -8 -1705 -4 -6 -4 -14 0 -16 11 -7 9 -419 -2 -436 -5
-8 -4 -12 1 -8 5 3 8 -43 8 -109 -1 -64 3 -114 8 -114 5 0 6 -4 3 -10 -3 -5
-3 -10 2 -10 14 0 68 -52 65 -62 -1 -5 2 -7 7 -3 6 3 16 -3 23 -15 7 -11 17
-20 23 -20 5 0 18 -9 30 -19 11 -11 34 -33 52 -50 18 -17 37 -31 43 -31 6 0 8
-4 5 -10 -3 -5 -2 -10 4 -10 6 0 28 -17 50 -38 22 -20 51 -45 65 -56 14 -10
23 -23 19 -29 -3 -5 -1 -7 4 -4 6 4 30 -11 53 -33 23 -22 45 -40 47 -40 3 0
22 -18 44 -40 21 -21 39 -37 39 -34 0 3 15 -9 34 -28 19 -18 48 -44 65 -57 17
-13 28 -28 24 -34 -3 -5 -2 -7 3 -4 5 3 27 -10 49 -29 22 -19 43 -34 47 -34 5
0 8 -7 8 -16 0 -8 4 -13 9 -10 5 3 23 -8 40 -25 24 -23 37 -28 54 -23 12 4 29
9 37 10 26 4 154 41 185 54 17 6 32 11 35 10 10 -2 105 23 115 30 6 4 18 6 28
5 9 -2 17 0 17 5 0 4 19 11 43 15 23 5 44 9 47 10 33 11 98 28 108 28 6 0 12
3 12 7 0 4 10 7 23 7 12 0 35 5 51 12 16 6 38 13 50 16 11 2 21 4 21 5 0 1 7
3 15 5 8 2 33 9 55 15 22 7 48 12 58 13 9 1 17 6 17 11 0 5 3 6 7 3 3 -4 13
-1 21 6 13 10 14 9 7 -3 -8 -13 -7 -13 8 -1 9 7 26 11 38 8 12 -3 18 -3 15 1
-8 7 74 33 84 27 4 -2 7 -56 8 -119 0 -102 3 -117 21 -135 12 -12 21 -19 21
-16 0 6 33 -21 68 -55 14 -14 29 -25 32 -25 3 0 4 -4 2 -8 -1 -5 2 -6 7 -3 5
4 16 0 23 -8 8 -7 24 -17 36 -20 12 -4 22 -14 22 -22 0 -8 6 -13 13 -11 6 1
11 -4 9 -11 -1 -8 2 -11 6 -8 8 5 21 -3 70 -44 6 -6 12 -8 12 -4 0 3 9 -4 21
-17 11 -13 18 -17 14 -9 -5 12 -4 12 7 -1 7 -9 23 -21 36 -28 12 -7 20 -17 16
-23 -4 -6 -3 -8 4 -4 6 3 18 -4 26 -16 9 -13 16 -17 16 -9 0 9 7 6 19 -7 10
-12 21 -22 25 -22 4 0 16 -9 28 -20 12 -10 25 -17 30 -14 7 5 12 -9 10 -27 -1
-4 8 -5 18 -2 14 4 20 0 20 -11 0 -10 5 -14 10 -11 6 3 10 2 10 -3 0 -5 12
-14 26 -20 16 -8 22 -17 18 -25 -4 -6 -4 -9 1 -5 7 7 65 -18 65 -28 0 -3 -5
-2 -12 2 -7 4 -8 3 -4 -5 4 -6 11 -9 16 -6 5 3 19 -5 32 -17 13 -13 30 -24 38
-26 8 -2 17 -8 18 -13 2 -5 10 -9 18 -9 8 0 17 -6 20 -14 4 -11 13 -12 35 -6
16 5 29 6 29 3 0 -3 6 0 14 6 10 9 16 9 21 1 4 -7 11 -8 18 -2 22 18 87 32 87
19 0 -7 5 -4 10 5 7 11 20 15 40 13 18 -3 28 0 25 5 -5 9 23 15 48 11 4 -1 22
5 40 12 17 7 42 12 55 11 12 -1 22 2 22 5 0 4 14 8 32 9 17 2 37 7 43 12 7 6
16 5 25 -3 8 -8 11 -8 7 -1 -9 17 18 25 33 11 9 -9 11 -9 7 -1 -4 7 0 15 9 18
10 4 13 2 8 -6 -5 -7 -3 -8 6 -3 12 8 67 23 105 30 39 6 50 10 57 20 5 6 8 5
8 -4 0 -11 3 -11 15 -1 8 6 19 9 25 5 5 -3 10 -1 10 5 0 8 9 10 24 6 13 -3 26
-2 28 4 2 5 20 11 40 12 21 2 38 6 38 10 0 4 8 7 18 7 9 0 45 7 80 16 35 8 68
13 74 9 6 -4 8 -3 5 3 -4 7 12 14 41 19 26 4 49 8 52 8 3 1 10 4 15 7 6 4 22
6 38 5 15 -1 27 2 27 7 0 5 7 7 15 3 8 -3 15 0 15 5 0 6 9 9 20 6 11 -3 23 -1
26 4 3 5 15 9 28 9 44 0 46 11 46 262 0 131 3 238 8 239 4 0 16 3 27 6 11 3
30 5 42 5 13 0 20 4 17 9 -3 5 6 9 20 9 14 0 28 5 31 10 4 6 10 8 15 5 4 -3
23 1 41 9 19 7 40 11 47 9 6 -3 12 0 12 6 0 5 9 8 20 6 11 -2 20 1 20 7 0 5 7
8 15 5 8 -4 17 -2 21 4 3 6 12 8 20 5 8 -3 14 -1 14 4 0 5 7 7 15 4 8 -4 15
-1 15 4 0 6 9 9 20 7 11 -2 20 0 20 6 0 5 5 9 11 9 5 0 7 -6 4 -12 -4 -7 -1
-6 7 3 7 9 23 15 36 14 12 -1 22 2 22 6 0 4 19 10 43 14 23 4 48 12 55 17 8 7
12 6 12 -3 0 -10 3 -10 8 -3 7 12 45 27 75 30 9 1 18 2 20 4 4 3 42 12 60 13
9 1 17 5 17 10 0 4 5 5 10 2 6 -3 10 -1 10 5 0 6 4 9 8 6 5 -3 19 1 33 8 13 7
29 11 35 9 36 -12 36 -31 36 2162 l0 2135 -256 383 -257 382 -2 130 c-3 146
-14 176 -71 195 -27 8 -110 12 -118 4z"/>
<path d="M790 2386 c0 -2 8 -10 18 -17 15 -13 16 -12 3 4 -13 16 -21 21 -21
13z"/>
<path d="M776 2228 c3 -5 10 -6 15 -3 13 9 11 12 -6 12 -8 0 -12 -4 -9 -9z"/>
<path d="M815 2230 c-3 -5 -1 -10 4 -10 6 0 11 5 11 10 0 6 -2 10 -4 10 -3 0
-8 -4 -11 -10z"/>
<path d="M693 2153 c4 -3 1 -13 -6 -22 -11 -14 -10 -14 5 -2 16 12 16 31 1 31
-4 0 -3 -3 0 -7z"/>
<path d="M750 2136 c0 -2 7 -7 16 -10 8 -3 12 -2 9 4 -6 10 -25 14 -25 6z"/>
<path d="M795 2110 c3 -5 8 -10 11 -10 2 0 4 5 4 10 0 6 -5 10 -11 10 -5 0 -7
-4 -4 -10z"/>
<path d="M833 2093 c4 -3 1 -13 -6 -22 -11 -14 -10 -14 5 -2 16 12 16 31 1 31
-4 0 -3 -3 0 -7z"/>
<path d="M706 2008 c3 -5 10 -6 15 -3 13 9 11 12 -6 12 -8 0 -12 -4 -9 -9z"/>
<path d="M780 1910 c8 -5 20 -10 25 -10 6 0 3 5 -5 10 -8 5 -19 10 -25 10 -5
0 -3 -5 5 -10z"/>
<path d="M2830 1270 c0 -5 5 -10 11 -10 5 0 7 5 4 10 -3 6 -8 10 -11 10 -2 0
-4 -4 -4 -10z"/>
<path d="M2839 1203 c-13 -16 -12 -17 4 -4 9 7 17 15 17 17 0 8 -8 3 -21 -13z"/>
<path d="M2833 1165 c0 -8 4 -12 9 -9 5 3 6 10 3 15 -9 13 -12 11 -12 -6z"/>
</g>
</svg>
